<svg height="512" viewBox="0 0 128 128" width="512" xmlns="http://www.w3.org/2000/svg"><g><path d="m69.881 14.7c-11.681 11.682-6.6 26.66-6.6 26.66s14.979 5.079 26.66-6.6 6.6-26.66 6.6-26.66-14.978-5.081-26.66 6.6z" fill="#6bc800"/><path d="m94.56 7.6-31.78 31.78a16.38 16.38 0 0 0 .5 1.98 16.38 16.38 0 0 0 1.98.5l31.78-31.78a16.38 16.38 0 0 0 -.5-1.98 16.38 16.38 0 0 0 -1.98-.5z" fill="#9cdd03"/><path d="m66.256 41.043a7.366 7.366 0 0 1 -4.512 0c-6.975-2.243-28.46-7.109-40.744 12.698-15.177 24.469 5.227 45.27 11.937 55.785 5.28 8.276 17 14.155 25.287 10.226a13.435 13.435 0 0 1 11.552 0c8.287 3.929 20.007-1.95 25.287-10.226 6.71-10.515 27.114-31.316 11.937-55.785-12.284-19.807-33.769-14.941-40.744-12.698z" fill="#f95353"/><path d="m31.459 8.1s-5.08 14.978 6.6 26.66 26.66 6.6 26.66 6.6 5.079-14.978-6.6-26.66-26.66-6.6-26.66-6.6z" fill="#9cdd03"/><path d="m95.565 60.807a1.749 1.749 0 0 0 -.717 2.368c4.006 7.488 2.906 14.834-3.8 25.355a1.75 1.75 0 1 0 2.952 1.881c5.212-8.179 9.756-18.007 3.934-28.887a1.752 1.752 0 0 0 -2.369-.717z" fill="#ff3636"/><path d="m31.46 8.1a16.38 16.38 0 0 0 -.5 1.98l31.78 31.78a16.38 16.38 0 0 0 1.98-.5 16.38 16.38 0 0 0 .5-1.98l-31.78-31.78a16.38 16.38 0 0 0 -1.98.5z" fill="#6bc800"/></g></svg>